<?xml version="1.0" encoding="UTF-8"?>
<svg id="Layer_2" data-name="Layer 2" xmlns="http://www.w3.org/2000/svg" viewBox="0 0 1090.95 227.91">
  <defs>
    <style>
      .cls-1 {
        fill: #764bd1;
      }

      .cls-1, .cls-2, .cls-3, .cls-4, .cls-5, .cls-6, .cls-7 {
        stroke-width: 0px;
      }

      .cls-2 {
        fill: #9474dc;
      }

      .cls-3 {
        fill: #14004c;
      }

      .cls-4 {
        fill: #b39be6;
      }

      .cls-5 {
        fill: #a487e2;
      }

      .cls-6 {
        fill: #865fd7;
      }

      .cls-7 {
        fill: #c2afec;
      }
    </style>
  </defs>
  <g id="Layer_1-2" data-name="Layer 1">
    <g>
      <g>
        <path class="cls-1" d="M.69,142.06c2.44,8.57,5.85,16.73,10.11,24.35,5.7,10.2,19.57,12.15,27.84,3.89l20.76-20.76c11.09-11.09,3.23-30.04-12.44-30.04h-29.37c-11.75,0-20.11,11.27-16.89,22.57Z"/>
        <path class="cls-7" d="M161.98,149.54l20.76,20.76c8.27,8.27,22.13,6.32,27.84-3.89,4.26-7.62,7.67-15.78,10.11-24.35,3.22-11.3-5.14-22.57-16.89-22.57h-29.37c-15.68,0-23.53,18.96-12.44,30.04Z"/>
        <path class="cls-6" d="M10.8,54.97c-4.26,7.62-7.67,15.78-10.11,24.35-3.22,11.3,5.14,22.57,16.89,22.57h29.37c15.68,0,23.53-18.96,12.44-30.04l-20.76-20.76c-8.27-8.27-22.13-6.32-27.84,3.89Z"/>
        <path class="cls-4" d="M174.43,101.89h29.37c11.75,0,20.11-11.27,16.89-22.57-2.44-8.57-5.85-16.73-10.11-24.35-5.7-10.2-19.57-12.15-27.84-3.89l-20.76,20.76c-11.09,11.09-3.23,30.04,12.44,30.04Z"/>
        <path class="cls-5" d="M119.49,17.59v29.37c0,15.68,18.96,23.53,30.04,12.44l20.76-20.76c8.27-8.27,6.32-22.13-3.88-27.84-7.62-4.26-15.78-7.67-24.35-10.11-11.3-3.22-22.57,5.14-22.57,16.89Z"/>
        <path class="cls-2" d="M79.32.69c-8.57,2.44-16.73,5.85-24.35,10.11-10.2,5.7-12.15,19.57-3.89,27.84l20.76,20.76c11.09,11.09,30.04,3.23,30.04-12.44v-29.37c0-11.75-11.27-20.11-22.57-16.89Z"/>
        <circle class="cls-3" cx="110.69" cy="110.69" r="32.2"/>
        <path class="cls-3" d="M151.26,163.7c-5.1-5.1-12.78-6.36-19.41-3.52-6.49,2.78-13.64,4.33-21.15,4.33s-14.66-1.54-21.15-4.33c-6.64-2.84-14.31-1.59-19.41,3.52l-19.06,19.06c-8.19,8.19-6.43,22.02,3.66,27.71,16.54,9.31,35.62,14.62,55.95,14.62s39.41-5.32,55.95-14.62c10.09-5.68,11.85-19.51,3.66-27.71l-19.06-19.06Z"/>
      </g>
      <g>
        <path class="cls-3" d="M336.9,110.69c10.92-6.75,16.66-17.09,16.66-30.08,0-22.88-17.72-38.85-43.08-38.85-22.95,0-39.81,13.12-45.09,35.1-.36,1.52-.07,3.13.79,4.44.87,1.32,2.27,2.22,3.83,2.47l8.91,1.45c2.86.47,5.62-1.32,6.38-4.15,3.72-13.74,12.02-20.42,25.36-20.42,14.15,0,22.26,7.56,22.26,20.73s-8.45,20.54-23.8,20.54h-7.81c-3.13,0-5.67,2.54-5.67,5.67v6.97c0,3.13,2.54,5.67,5.67,5.67h7.81c17.57,0,27.65,7.97,27.65,21.88s-10.42,23.42-25.92,23.42c-13.69,0-23.51-7.22-26.93-19.79-.78-2.86-3.52-4.66-6.41-4.18l-8.76,1.44h0c-1.54.25-2.92,1.14-3.79,2.43-.88,1.3-1.17,2.85-.84,4.37,4.81,21.68,22.06,34.63,46.16,34.63,27.41,0,47.31-17.47,47.31-41.54,0-14.63-7.32-25.96-20.7-32.19Z"/>
        <path class="cls-3" d="M417.48,89.86c-1.37,0-2.74.07-4.1.2-.92.08-1.7-.32-2.15-1.07-.2-.35-.6-1.26.08-2.27l22.69-33.35c1.18-1.74,1.31-3.98.32-5.84-.98-1.86-2.9-3.02-5.01-3.02h-10.13c-1.9,0-3.66.94-4.71,2.52l-31.51,47.08c-12.09,17.94-17.02,30.64-17.02,43.84,0,26.31,21.46,46.92,48.85,46.92s49.62-21.12,49.62-48.08-20.61-46.93-46.93-46.93ZM415.17,165.96c-16.46,0-28.41-12.19-28.41-28.99s11.95-28.99,28.41-28.99,28.42,12.19,28.42,28.99-11.95,28.99-28.42,28.99Z"/>
        <path class="cls-3" d="M524.09,42.19c-30.83,0-49.23,19.41-49.23,51.92v38.83c0,32.51,18.4,51.92,49.23,51.92s49.23-19.41,49.23-51.92v-38.83c0-32.51-18.4-51.92-49.23-51.92ZM552.5,94.11v38.83c0,21.61-9.83,33.02-28.42,33.02s-28.42-11.42-28.42-33.02v-38.83c0-21.61,9.83-33.02,28.42-33.02s28.42,11.42,28.42,33.02Z"/>
        <path class="cls-3" d="M678.53,104.89l-12.3-2.69c-22.79-5-27.25-11.05-27.25-19.81,0-12.59,10.17-20.73,25.92-20.73,14.39,0,23.78,6.59,27.91,19.59.92,2.88,3.9,4.57,6.79,3.84l9.53-2.38c1.49-.37,2.74-1.3,3.52-2.62.77-1.29.99-2.8.62-4.25-5.29-20.44-24.2-33.65-48.17-33.65-27.53,0-47.5,17.23-47.5,40.97,0,19.18,12.69,31.65,37.71,37.08l12.3,2.69c22.78,4.95,27.44,11.73,27.44,20.38,0,13.2-11.11,22.07-27.65,22.07-15.31,0-25.65-7.56-30.73-22.45-.96-2.83-3.86-4.42-6.74-3.69l-9.69,2.42h0c-3.01.76-4.88,3.81-4.15,6.8,5.36,22.11,25.42,36.39,51.12,36.39,28.99,0,49.23-17.71,49.23-43.08,0-19.42-12.04-31.15-37.9-36.89Z"/>
        <path class="cls-3" d="M814.17,88.7h-7.72c-2.94,0-5.37,2.21-5.64,5.13l-.45,4.66c-6.38-7.45-17.6-12.1-29.75-12.1-26.08,0-45,20.71-45,49.23s18.93,49.23,45,49.23c12.15,0,23.37-4.65,29.75-12.1l.45,4.66c.28,2.93,2.7,5.13,5.64,5.13h7.72c3.13,0,5.67-2.54,5.67-5.67v-82.51c0-3.13-2.54-5.67-5.67-5.67ZM799.41,128.32v14.61c0,13.35-11.47,23.8-26.11,23.8-16.33,0-26.88-12.21-26.88-31.11s10.55-31.11,26.88-31.11c14.64,0,26.11,10.45,26.11,23.8Z"/>
        <path class="cls-3" d="M920.21,88.7h-7.72c-2.94,0-5.37,2.21-5.64,5.13l-.45,4.68c-6.4-7.37-17.89-12.12-29.95-12.12-25.55,0-44.81,20.92-44.81,48.65s18.85,48.46,44.81,48.46c12.07,0,23.15-4.41,29.57-11.49v9.93c0,17.29-10.52,28.03-27.45,28.03-11.84,0-20.8-5.35-25.23-15.05-1.18-2.58-3.98-3.93-6.66-3.2l-8.54,2.29h0c-1.54.41-2.79,1.42-3.53,2.83-.74,1.42-.86,3.11-.32,4.63,5.91,16.56,22.39,26.45,44.08,26.45,29.3,0,47.5-17.91,47.5-46.73v-86.81c0-3.13-2.54-5.67-5.67-5.67ZM905.44,128.32v13.46c0,13.35-11.47,23.8-26.11,23.8-16.08,0-26.88-12.27-26.88-30.53s10.8-30.53,26.88-30.53c14.64,0,26.11,10.45,26.11,23.8Z"/>
        <rect class="cls-3" x="941.06" y="44.49" width="20.43" height="138.06" rx="5.67" ry="5.67"/>
        <rect class="cls-3" x="976.69" y="88.7" width="20.43" height="93.85" rx="5.67" ry="5.67"/>
        <path class="cls-3" d="M1089.36,172.97l-36.54-38.23c-.82-.85-.79-2.22.07-3.04l34.58-33.24c1.68-1.61,2.2-4.05,1.33-6.2-.87-2.16-2.93-3.55-5.26-3.55h-10.43c-1.48,0-2.87.56-3.93,1.58l-36.44,35.04V50.17c0-3.13-2.54-5.67-5.67-5.67h-9.09c-3.13,0-5.67,2.54-5.67,5.67v126.72c0,3.13,2.54,5.67,5.67,5.67h9.09c3.13,0,5.67-2.54,5.67-5.67v-35.15l37.13,39.06c1.07,1.12,2.56,1.76,4.11,1.76h11.28c2.31,0,4.31-1.32,5.21-3.44.91-2.12.48-4.48-1.12-6.15Z"/>
        <path class="cls-3" d="M905.5,48.34c3.14,0,5.63,2.79,5.15,5.89-2.18,14.33-12.54,23.76-29.01,23.76s-26.83-9.43-29.01-23.76c-.47-3.11,2.01-5.89,5.15-5.89h6.32c2.62,0,4.75,1.96,5.15,4.55,1.21,7.82,5.73,11.34,12.39,11.34s11.18-3.52,12.39-11.34c.4-2.59,2.53-4.55,5.15-4.55h6.32Z"/>
      </g>
    </g>
  </g>
</svg>